IKResults
version=1
nRows=9
nColumns=67
inDegrees=yes

Units are S.I. units (second, meters, Newtons, ...)
Angles are in degrees.

endheader
time	pelvis_tilt	pelvis_list	pelvis_rotation	pelvis_tx	pelvis_ty	pelvis_tz	hip_flexion_r	hip_adduction_r	hip_rotation_r	knee_angle_r	knee_rot_r	knee_adduc_r	ankle_angle_r	ankle_rot_r	ankle_add_r	subtalar_angle_r	mtp_angle_r	mtp_rot_r	mtp_add_r	hip_flexion_l	hip_adduction_l	hip_rotation_l	knee_angle_l	knee_rot_l	knee_adduc_l	ankle_angle_l	ankle_rot_l	ankle_add_l	subtalar_angle_l	mtp_angle_l	mtp_rot_l	mtp_add_l	lumbar_extension	lumbar_bending	lumbar_rotation	neck_flexion	neck_lateral_bending	neck_rotation	arm_flex_r	arm_add_r	arm_rot_r	elbow_flex_r	elbow_rot_r	elbow_add_r	pro_sup_r	wrist_flex_r	wrist_adduc_r	wrist_rot_r	wrist_dev_r	hand_finger_flex_r	hand_finger_adduc_r	hand_finger_rot_r	arm_flex_l	arm_add_l	arm_rot_l	elbow_flex_l	elbow_rot_l	elbow_add_l	pro_sup_l	wrist_flex_l	wrist_adduc_l	wrist_rot_l	wrist_dev_l	hand_finger_flex_l	hand_finger_adduc_l	hand_finger_rot_l
      0.00000000	     13.29517037	    -12.87860305	     12.56893589	     -3.38518511	      0.65017582	      0.58431655	     16.00938135	      3.61368310	    -19.50424355	    -53.31891493	     -5.00000000	     -4.48972113	     23.53671519	     -5.00000000	     -5.00000000	    -20.17401249	      3.17100732	     -2.00000000	      2.00000000	      1.73135726	    -22.30842713	     16.66086853	    -36.76758520	      5.00000000	     -3.65728065	     30.20314814	      4.99990396	      3.69790655	    -12.22609537	      4.30413301	      1.56304228	     -1.99990327	    -31.76404235	      6.38777435	     16.48549527	      0.00000000	      0.00000000	      0.00000000	      0.00000000	      0.00000000	      0.00000000	      0.00000000	      0.00000000	      0.00000000	     -0.00042092	      0.00000000	      0.00000000	      0.00000000	      0.00000000	      0.00000000	      0.00000000	      0.00000000	      0.00000000	      0.00000000	      0.00000000	      0.00000000	      0.00000000	      0.00000000	      0.00000000	      0.00000000	      0.00000000	      0.00000000	      0.00000000	      0.00000000	      0.00000000	      0.00000000
      0.00500000	     -0.69266057	     -9.56013778	     12.22721250	     -3.39216013	      0.63440625	      0.58053772	     33.19744311	     -5.85119055	    -14.09797384	    -58.64348771	     -5.00000000	      0.47913673	     23.71402664	     -4.38919752	     -4.59609839	    -24.64698599	      3.84730678	     -2.00000000	      1.98954106	     19.03538145	    -13.15624316	     20.26961837	    -40.98072962	      5.00000000	     -3.31127106	     27.92936950	      5.00000000	      5.00000000	    -14.94416862	      3.12841472	      2.00000000	     -1.82903817	    -17.71651584	      1.94937712	     11.54314656	      0.00000000	      0.00000000	      0.00000000	      0.00000000	      0.00000000	      0.00000000	      0.00000000	      0.00000000	      0.00000000	     -0.00042092	      0.00000000	      0.00000000	      0.00000000	      0.00000000	      0.00000000	      0.00000000	      0.00000000	      0.00000000	      0.00000000	      0.00000000	      0.00000000	      0.00000000	      0.00000000	      0.00000000	      0.00000000	      0.00000000	      0.00000000	      0.00000000	      0.00000000	      0.00000000	      0.00000000
      0.01000000	     -0.95590657	    -10.63278209	     12.37632720	     -3.39060882	      0.63394550	      0.58193858	     33.89775509	     -4.99883760	    -14.87075016	    -57.91289150	     -5.00000000	      0.18692467	     21.74457072	     -4.44188239	     -4.09292391	    -23.63255217	      3.66161280	     -2.00000000	      2.00000000	     19.84378579	    -14.46367107	     19.83208034	    -41.34227480	      5.00000000	     -2.94641587	     28.54249664	      4.41620141	      5.00000000	    -15.04949905	      3.16331455	      2.00000000	     -1.87706963	    -17.28426182	      3.13668071	     11.48494450	      0.00000000	      0.00000000	      0.00000000	      0.00000000	      0.00000000	      0.00000000	      0.00000000	      0.00000000	      0.00000000	     -0.00042092	      0.00000000	      0.00000000	      0.00000000	      0.00000000	      0.00000000	      0.00000000	      0.00000000	      0.00000000	      0.00000000	      0.00000000	      0.00000000	      0.00000000	      0.00000000	      0.00000000	      0.00000000	      0.00000000	      0.00000000	      0.00000000	      0.00000000	      0.00000000	      0.00000000
      0.01500000	     -0.95185195	    -10.61820973	     12.39093223	     -3.38909521	      0.63384607	      0.58270364	     34.25543338	     -5.21368105	    -14.87036011	    -57.51673742	     -5.00000000	      0.14468222	     21.75672093	     -4.47509655	     -4.10081173	    -23.65454840	      3.66237144	     -2.00000000	      2.00000000	     19.72101048	    -14.60123369	     19.81886299	    -41.32990068	      5.00000000	     -3.00407835	     28.54333118	      4.38976222	      5.00000000	    -15.03990205	      3.16212287	      2.00000000	     -1.87725977	    -17.40579661	      3.23817261	     11.41446020	      0.00000000	      0.00000000	      0.00000000	      0.00000000	      0.00000000	      0.00000000	      0.00000000	      0.00000000	      0.00000000	     -0.00042092	      0.00000000	      0.00000000	      0.00000000	      0.00000000	      0.00000000	      0.00000000	      0.00000000	      0.00000000	      0.00000000	      0.00000000	      0.00000000	      0.00000000	      0.00000000	      0.00000000	      0.00000000	      0.00000000	      0.00000000	      0.00000000	      0.00000000	      0.00000000	      0.00000000
      0.02000000	     -1.00859387	    -10.60470404	     12.44322511	     -3.38691305	      0.63378613	      0.58353403	     34.47890860	     -5.38978924	    -14.93536663	    -56.89084458	     -5.00000000	      0.03960911	     21.75348714	     -4.57309340	     -4.11450705	    -23.69975878	      3.66224215	     -2.00000000	      2.00000000	     19.61263777	    -14.77229412	     19.76635678	    -41.32536440	      5.00000000	     -3.08863766	     28.55214718	      4.32345419	      5.00000000	    -15.02369832	      3.15675530	      2.00000000	     -1.87818418	    -17.28480872	      3.29279387	     11.24152488	      0.00000000	      0.00000000	      0.00000000	      0.00000000	      0.00000000	      0.00000000	      0.00000000	      0.00000000	      0.00000000	     -0.00042092	      0.00000000	      0.00000000	      0.00000000	      0.00000000	      0.00000000	      0.00000000	      0.00000000	      0.00000000	      0.00000000	      0.00000000	      0.00000000	      0.00000000	      0.00000000	      0.00000000	      0.00000000	      0.00000000	      0.00000000	      0.00000000	      0.00000000	      0.00000000	      0.00000000
      0.02500000	     -1.02519365	    -10.59566257	     12.49113604	     -3.38530292	      0.63355032	      0.58432428	     34.78626295	     -5.59558326	    -14.94278498	    -56.42098430	     -5.00000000	      0.02473784	     21.74299678	     -4.59180520	     -4.11549992	    -23.70236496	      3.66163960	     -2.00000000	      2.00000000	     19.51338578	    -14.90116700	     19.72645502	    -41.28939264	      5.00000000	     -3.12084148	     28.55694372	      4.30636062	      5.00000000	    -15.02106276	      3.15476572	      2.00000000	     -1.87851539	    -17.36152261	      3.38873941	     11.19178233	      0.00000000	      0.00000000	      0.00000000	      0.00000000	      0.00000000	      0.00000000	      0.00000000	      0.00000000	      0.00000000	     -0.00042092	      0.00000000	      0.00000000	      0.00000000	      0.00000000	      0.00000000	      0.00000000	      0.00000000	      0.00000000	      0.00000000	      0.00000000	      0.00000000	      0.00000000	      0.00000000	      0.00000000	      0.00000000	      0.00000000	      0.00000000	      0.00000000	      0.00000000	      0.00000000	      0.00000000
      0.03000000	     -1.19433243	    -10.71688744	     12.64787047	     -3.38250643	      0.63339611	      0.58493695	     34.94107025	     -5.72665128	    -15.16564873	    -55.61519989	     -5.00000000	     -0.04394522	     21.61243057	     -4.69229646	     -4.10877538	    -23.67901413	      3.65986915	     -2.00000000	      2.00000000	     19.43692741	    -15.13768297	     19.60023243	    -41.05321036	      5.00000000	     -2.99738219	     28.59153099	      4.19342113	      5.00000000	    -15.00335464	      3.13903225	      2.00000000	     -1.88035272	    -16.91512902	      3.61932290	     10.91166913	      0.00000000	      0.00000000	      0.00000000	      0.00000000	      0.00000000	      0.00000000	      0.00000000	      0.00000000	      0.00000000	     -0.00042092	      0.00000000	      0.00000000	      0.00000000	      0.00000000	      0.00000000	      0.00000000	      0.00000000	      0.00000000	      0.00000000	      0.00000000	      0.00000000	      0.00000000	      0.00000000	      0.00000000	      0.00000000	      0.00000000	      0.00000000	      0.00000000	      0.00000000	      0.00000000	      0.00000000
      0.03500000	     -1.23469632	    -10.70428066	     12.74966879	     -3.38053011	      0.63307538	      0.58589569	     35.09025877	     -5.89955779	    -15.18222616	    -54.90617880	     -5.00000000	     -0.06107572	     21.55074210	     -4.69377094	     -4.10078890	    -23.64389168	      3.66036582	     -2.00000000	      2.00000000	     19.44268015	    -15.29169378	     19.51167991	    -41.21173128	      5.00000000	     -3.01775612	     28.61066985	      4.15015053	      5.00000000	    -14.99638067	      3.13430960	      2.00000000	     -1.88147172	    -16.84047500	      3.67660054	     10.82085911	      0.00000000	      0.00000000	      0.00000000	      0.00000000	      0.00000000	      0.00000000	      0.00000000	      0.00000000	      0.00000000	     -0.00042092	      0.00000000	      0.00000000	      0.00000000	      0.00000000	      0.00000000	      0.00000000	      0.00000000	      0.00000000	      0.00000000	      0.00000000	      0.00000000	      0.00000000	      0.00000000	      0.00000000	      0.00000000	      0.00000000	      0.00000000	      0.00000000	      0.00000000	      0.00000000	      0.00000000
      0.04000000	     -1.31297400	    -10.69398859	     12.84589043	     -3.37829088	      0.63273646	      0.58675347	     35.20524324	     -6.07332850	    -15.17974942	    -54.12830858	     -5.00000000	     -0.05321936	     21.47715720	     -4.67704826	     -4.08827468	    -23.59375234	      3.66088539	     -2.00000000	      2.00000000	     19.38519524	    -15.42535640	     19.44534019	    -41.23180258	      5.00000000	     -3.02596876	     28.63113712	      4.10372920	      5.00000000	    -14.98461403	      3.13013705	      2.00000000	     -1.88232819	    -16.67280659	      3.75342043	     10.67818931	      0.00000000	      0.00000000	      0.00000000	      0.00000000	      0.00000000	      0.00000000	      0.00000000	      0.00000000	      0.00000000	     -0.00042092	      0.00000000	      0.00000000	      0.00000000	      0.00000000	      0.00000000	      0.00000000	      0.00000000	      0.00000000	      0.00000000	      0.00000000	      0.00000000	      0.00000000	      0.00000000	      0.00000000	      0.00000000	      0.00000000	      0.00000000	      0.00000000	      0.00000000	      0.00000000	      0.00000000
